# xmcd
#
# Track frame offsets: 
#        151
#        31434
#        61030
#        85265
#        106374
#        132176
#        165706
#        185869
#        212259
#        235321
#        266572
#        295953
#        318002
#
# Disc length: 4583 seconds
#
# Revision: 0
# Processed by: cddbd v1.5.2PL0 Copyright (c) Steve Scherf et al.
# Submitted via: ExactAudioCopy v0.99pb4
#
DISCID=b311e50d
DTITLE=Various Artist - Mata Bhajans
DYEAR=1900
DGENRE=Alt. Rock
TTITLE0=Meri Doli Sushera Diwali
TTITLE1=Har Haal Mein Karna
TTITLE2=Maa Mansa Meri Laaj
TTITLE3=Tum Vintie Sonu Sabki
TTITLE4=Mata Rani Ka Dhyan
TTITLE5=Aansuon Se Tere
TTITLE6=He Sharde Ma
TTITLE7=Ambe Charan Kamal Hain
TTITLE8=Jai Jaddambe Maa
TTITLE9=Maat Ang Chola Saaje
TTITLE10=Raan Mein Nachie Schandni
TTITLE11=Maa Jai Ambe Maa Raksha Karo
TTITLE12=Aisa Pyar Bahade Maiya
EXTD=
EXTT0=
EXTT1=
EXTT2=
EXTT3=
EXTT4=
EXTT5=
EXTT6=
EXTT7=
EXTT8=
EXTT9=
EXTT10=
EXTT11=
EXTT12=
PLAYORDER=
